<?xml version="1.0" encoding="utf-8"?>
<!-- Generator: Adobe Illustrator 27.5.0, SVG Export Plug-In . SVG Version: 6.00 Build 0)  -->
<svg version="1.1" xmlns="http://www.w3.org/2000/svg" xmlns:xlink="http://www.w3.org/1999/xlink" x="0px" y="0px"
	 viewBox="0 0 3710 3710" style="enable-background:new 0 0 3710 3710;" xml:space="preserve">
<g id="Background">
	<g>
		<g>
			<rect style="fill:#FFFFFF;" width="3710" height="3710"/>
		</g>
	</g>
</g>
<g id="Illustration">
	<g>
		<linearGradient id="SVGID_1_" gradientUnits="userSpaceOnUse" x1="3612.4521" y1="4085.9463" x2="1119.959" y2="990.4262">
			<stop  offset="0" style="stop-color:#DAE3FE"/>
			<stop  offset="1" style="stop-color:#E9EFFD"/>
		</linearGradient>
		<path style="fill:url(#SVGID_1_);" d="M2931.217,2862.091c-57.496,60.103-111.899,98.863-154.881,129.486
			c-505.249,359.968-1103.093,255.04-1230.152,229.415c-187.626-37.839-550.302-110.982-812.511-417.162
			c-396.7-463.225-334.928-1193.023-27.22-1674.772c56.284-88.12,353.595-577.208,957.878-655.642
			c365.706-47.467,792.001,48.269,1100.712,305.086C3413.055,1317.583,3366.923,2406.623,2931.217,2862.091z"/>
		<g style="opacity:0.9;">
			<path style="fill:#BDD0FB;" d="M3045.531,563.711c73.935,270.721,439.852,1863.728-993.323,2475.612
				c0,0-510.867-986.722,953.464-2486.013C3018.483,540.193,3040.702,546.025,3045.531,563.711z"/>
			<path style="opacity:0.6;fill:#FFFFFF;" d="M2941.895,826.034c-3.809,47.142-8.968,94.057-14.558,140.957
				c-5.659,46.882-11.945,93.686-18.834,140.401c-13.745,93.435-29.749,186.541-48.059,279.198
				c-36.688,185.278-82.161,368.964-139.553,549.05c-57.564,179.925-126.835,356.618-214.738,524.257
				c-21.835,41.964-45.271,83.098-69.741,123.6c-6.223,10.064-12.194,20.283-18.622,30.22l-19.153,29.893
				c-13.182,19.659-26.208,39.434-40.099,58.615c-54.634,77.355-116.034,150.098-184.161,216.156
				c-2.692,2.611-6.989,2.544-9.601-0.148c-2.609-2.693-2.543-6.991,0.149-9.601l0.016-0.016l0.043-0.042
				c67.636-65.133,128.774-137.034,183.292-213.665c13.861-18.997,26.867-38.601,40.036-58.087l19.136-29.644
				c6.425-9.854,12.396-19.996,18.619-29.981c24.471-40.188,47.927-81.027,69.804-122.723
				c88.072-166.556,157.767-342.48,215.815-521.789c57.883-179.472,103.919-362.702,141.197-547.601
				c18.602-92.469,34.91-185.406,48.961-278.683c7.042-46.636,13.483-93.363,19.299-140.167
				c5.742-46.799,11.06-93.706,15.015-140.633l0.003-0.039c0.133-1.583,1.522-2.758,3.106-2.624
				C2940.851,823.07,2942.028,824.451,2941.895,826.034z"/>
		</g>
		<g style="opacity:0.9;">
			<path style="fill:#91B3FA;" d="M3222.722,1729.232c34.754,155.931,199.943,1071.618-631.48,1380.974
				c0,0-263.933-574.835,609.095-1387.961C3207.975,1715.131,3220.452,1719.045,3222.722,1729.232z"/>
			<path style="opacity:0.6;fill:#FFFFFF;" d="M3186.455,1892.57c-11.531,51.461-25.061,102.314-39.376,152.988
				c-14.408,50.638-29.958,100.95-46.528,150.928c-16.537,49.99-34.334,99.569-53.211,148.735
				c-18.96,49.13-38.753,97.97-60.356,146.031c-42.887,96.231-91.172,190.248-147.311,279.653l-5.195,8.421l-5.434,8.27
				l-10.904,16.522l-10.904,16.523c-3.627,5.511-7.582,10.806-11.355,16.22c-7.688,10.733-15.155,21.63-23.028,32.23l-24.083,31.475
				c-32.852,41.397-68.047,81.015-106.204,117.795c-2.698,2.603-6.999,2.523-9.601-0.177c-2.602-2.7-2.523-6.998,0.176-9.601
				l0.03-0.029l0.066-0.063c37.831-36.022,72.868-74.96,105.653-115.75l24.053-31.036c7.874-10.458,15.34-21.223,23.035-31.82
				c3.776-5.347,7.731-10.572,11.365-16.021l10.927-16.335l10.924-16.336l5.45-8.178l5.212-8.334
				c56.318-88.466,104.98-181.762,148.308-277.39c21.825-47.759,41.859-96.33,61.075-145.211
				c19.129-48.918,37.191-98.269,54-148.049c16.845-49.768,32.676-99.886,47.37-150.338c14.597-50.46,28.436-101.226,40.222-152.35
				l0.013-0.051c0.355-1.548,1.9-2.513,3.448-2.156C3185.835,1889.495,3186.799,1891.029,3186.455,1892.57z"/>
		</g>
		<g>
			
				<linearGradient id="SVGID_00000068672452816528751220000013084823921216559024_" gradientUnits="userSpaceOnUse" x1="911.9249" y1="1805.0131" x2="2720.072" y2="1805.0131">
				<stop  offset="0" style="stop-color:#09005D"/>
				<stop  offset="1" style="stop-color:#1A0F91"/>
			</linearGradient>
			<path style="fill:url(#SVGID_00000068672452816528751220000013084823921216559024_);" d="M945.058,592.621
				c-10.665,430.188-45.252,1914.073-28.741,2439.918c1.749,55.708,46.407,100.421,102.114,102.244
				c275.524,9.016,1068.127,31.869,1518.791,12.962c93.867-3.938,168.511-79.97,170.459-173.899
				c9.365-451.538,30.027-1721.546-19.083-2303.336c-5.884-69.707-60.596-125.218-130.204-132.182
				c-300.058-30.017-1097.005-103.391-1486.351-78.125C1001.825,464.76,946.802,522.276,945.058,592.621z"/>
			
				<linearGradient id="SVGID_00000003825597988401835120000018158033369309925761_" gradientUnits="userSpaceOnUse" x1="781.9759" y1="3835.3877" x2="1973.7073" y2="1370.4363">
				<stop  offset="0" style="stop-color:#FE7062"/>
				<stop  offset="1" style="stop-color:#FF928E"/>
			</linearGradient>
			<path style="fill:url(#SVGID_00000003825597988401835120000018158033369309925761_);" d="M1057.012,726.29
				c-15.049,352.322-62.514,1524.414-47.449,1957.829c2.201,63.35,52.132,114.573,115.411,118.275
				c260.541,15.247,928.807,48.866,1310.957,18.264c68.812-5.51,122.811-61.16,126.525-130.094
				c19.366-359.442,74.97-1450.824,60.529-1879.382c-2.304-68.367-55.263-124.201-123.395-130.318
				c-281.864-25.306-1005.787-85.522-1330.527-67.804C1108.103,616.387,1059.617,665.294,1057.012,726.29z"/>
			<path style="fill:#7D97F4;" d="M1625.986,535.372L1625.986,535.372c0,13.2,10.287,24.087,23.469,24.777
				c65.077,3.408,248.4,13.052,330.329,17.805c16.154,0.937,28.832-13.583,25.769-29.472l-0.523-2.711
				c-2.091-10.841-11.082-19.002-22.077-20.009c-55.38-5.075-222.487-19.145-333.205-15.193
				C1636.447,511.043,1625.986,522.063,1625.986,535.372z"/>
		</g>
		<g>
			<g>
				
					<ellipse transform="matrix(0.1126 -0.9936 0.9936 0.1126 -173.1367 1790.292)" style="fill:#FFFFFF;" cx="915.783" cy="992.082" rx="302.305" ry="285.465"/>
				
					<ellipse transform="matrix(0.1126 -0.9936 0.9936 0.1126 -173.1299 1790.3013)" style="fill:#7D97F4;" cx="915.783" cy="992.082" rx="292.254" ry="275.973"/>
				<path style="opacity:0.8;fill:#FFFFFF;" d="M1170.181,1009.907c-0.073,0-0.146-0.002-0.219-0.007
					c-1.873-0.119-3.292-1.734-3.173-3.604c0.713-11.203,0.759-22.534,0.139-33.684c-0.106-1.872,1.326-3.475,3.199-3.579
					c1.86-0.081,3.471,1.329,3.577,3.201c0.64,11.418,0.59,23.023-0.139,34.493
					C1173.45,1008.527,1171.958,1009.907,1170.181,1009.907z"/>
				<path style="opacity:0.8;fill:#FFFFFF;" d="M1155.574,900.481c-1.409,0-2.725-0.884-3.209-2.291
					c-32.606-94.605-111.76-160.053-206.575-170.801c-15.131-1.714-30.441-1.989-45.516-0.814c-1.873,0.133-3.501-1.251-3.647-3.121
					c-0.146-1.87,1.253-3.503,3.123-3.648c15.499-1.205,31.25-0.927,46.803,0.837c97.445,11.047,178.766,78.232,212.232,175.337
					c0.61,1.772-0.332,3.705-2.102,4.315C1156.313,900.42,1155.942,900.481,1155.574,900.481z"/>
				
					<ellipse transform="matrix(0.1126 -0.9936 0.9936 0.1126 -184.6912 1788.6528)" style="opacity:0.78;fill:#FFFFFF;" cx="909.091" cy="997.732" rx="247.356" ry="233.577"/>
			</g>
			<g>
				
					<linearGradient id="SVGID_00000076577526459178162930000009174069078327644039_" gradientUnits="userSpaceOnUse" x1="987.2682" y1="707.0662" x2="801.3583" y2="1432.8308">
					<stop  offset="0" style="stop-color:#FE7062"/>
					<stop  offset="1" style="stop-color:#FF928E"/>
				</linearGradient>
				<path style="fill:url(#SVGID_00000076577526459178162930000009174069078327644039_);" d="M994.468,866.933
					c-30.12,0-56.945,15.795-74.342,40.404c-17.396-24.609-44.221-40.404-74.342-40.404c-52.444,0-94.958,47.828-94.958,106.827
					c0,52.643,91.018,149.113,150.126,187.04c11.572,7.425,26.555,6.77,37.468-1.593c50.853-38.97,151.004-133.525,151.004-185.446
					C1089.425,914.761,1046.912,866.933,994.468,866.933z"/>
				<path style="fill:#FFFFFF;" d="M926.445,1065.313c-0.132,0-0.264-0.002-0.396-0.007c-3.819-0.151-7.226-2.441-8.808-5.918
					l-44.204-97.248l-42.74,46.812c-1.915,2.098-4.625,3.292-7.466,3.292H714.164c-5.582,0-10.109-4.526-10.109-10.109
					c0-5.582,4.526-10.108,10.109-10.108h104.209l50.063-54.832c2.29-2.51,5.692-3.704,9.042-3.169
					c3.355,0.531,6.22,2.71,7.626,5.802l42.22,92.885l43.343-78.428c1.873-3.388,5.534-5.397,9.385-5.205
					c3.867,0.205,7.276,2.601,8.78,6.172l17.612,41.829h94.375c5.582,0,10.108,4.526,10.108,10.109
					c0,5.582-4.526,10.109-10.108,10.109H999.732c-4.067,0-7.738-2.438-9.316-6.187l-12.131-28.81l-42.992,77.794
					C933.508,1063.322,930.114,1065.313,926.445,1065.313z"/>
			</g>
		</g>
		<g>
			<g>
				
					<linearGradient id="SVGID_00000013180910381636680930000010561086464844991912_" gradientUnits="userSpaceOnUse" x1="1340.0574" y1="699.604" x2="1916.8489" y2="1799.3304" gradientTransform="matrix(0.9991 0.0426 -0.0426 0.9991 -2.0954 -163.811)">
					<stop  offset="0" style="stop-color:#09005D"/>
					<stop  offset="1" style="stop-color:#1A0F91"/>
				</linearGradient>
				<path style="fill:url(#SVGID_00000013180910381636680930000010561086464844991912_);" d="M2150.176,1727.662l-687.16-29.292
					c-30.588-1.304-54.549-27.398-53.245-57.986l0,0c1.304-30.589,27.398-54.549,57.986-53.245l687.16,29.292
					c30.589,1.304,54.549,27.398,53.245,57.986l0,0C2206.858,1705.006,2180.765,1728.966,2150.176,1727.662z"/>
				
					<linearGradient id="SVGID_00000000212491985743458080000008816871914637535393_" gradientUnits="userSpaceOnUse" x1="1564.6953" y1="992.0089" x2="2374.2957" y2="2158.2173" gradientTransform="matrix(0.9991 0.0426 -0.0426 0.9991 -2.0954 -163.811)">
					<stop  offset="0" style="stop-color:#4F52FF"/>
					<stop  offset="1" style="stop-color:#4042E2"/>
				</linearGradient>
				<path style="fill:url(#SVGID_00000000212491985743458080000008816871914637535393_);" d="M2293.957,1659.502l-960.984-40.964
					c-14.425-0.615-25.723-12.92-25.108-27.344l19.815-464.836c1.121-26.284,23.543-46.873,49.827-45.753l917.857,39.126
					c26.284,1.12,46.873,23.543,45.753,49.827l-19.815,464.835C2320.686,1648.819,2308.381,1660.117,2293.957,1659.502z"/>
				
					<linearGradient id="SVGID_00000125568766900884685520000017831948425808540582_" gradientUnits="userSpaceOnUse" x1="1820.8942" y1="1915.7562" x2="2798.7263" y2="459.1941">
					<stop  offset="0" style="stop-color:#4F52FF"/>
					<stop  offset="1" style="stop-color:#4042E2"/>
				</linearGradient>
				<path style="fill:url(#SVGID_00000125568766900884685520000017831948425808540582_);" d="M1430.17,1652.397l764.062,32.57
					c68.578,2.924,122.296,61.425,119.372,130.003l-4.273,100.246c-11.88,278.695-260.37,749.121-539.065,737.242h-0.001
					c-278.695-11.88-486.25-501.747-474.37-780.441l4.273-100.247C1303.09,1703.191,1361.591,1649.474,1430.17,1652.397z"/>
				<g>
					
						<linearGradient id="SVGID_00000032630912906464506520000017377132971993111955_" gradientUnits="userSpaceOnUse" x1="1495.0758" y1="1471.8092" x2="2257.3784" y2="1471.8092" gradientTransform="matrix(0.9991 0.0426 -0.0426 0.9991 -2.0954 -163.811)">
						<stop  offset="0" style="stop-color:#09005D"/>
						<stop  offset="1" style="stop-color:#1A0F91"/>
					</linearGradient>
					<path style="fill:url(#SVGID_00000032630912906464506520000017377132971993111955_);" d="M2189.647,1424.06
						c-1.603,37.607-31.501,67.953-69.092,69.882c-203.469,10.44-413.72,2.053-629.302-27.021
						c-37.408-5.045-64.82-37.845-63.212-75.558l1.685-39.536c1.598-37.489,31.346-67.746,68.809-69.862
						c211.203-11.932,421.762-6.623,631.31,25.896c36.671,5.691,63.126,38.232,61.546,75.308L2189.647,1424.06z"/>
					<g>
						<path style="fill:#7D97F4;" d="M1650.418,1381.263c-1.089,25.55-22.685,45.38-48.235,44.291
							c-25.55-1.089-45.38-22.685-44.291-48.235c1.089-25.55,22.685-45.38,48.235-44.291
							C1631.677,1334.117,1651.507,1355.713,1650.418,1381.263z"/>
						<path style="fill:#7D97F4;" d="M2061.473,1398.785c-1.089,25.55-22.684,45.38-48.235,44.29
							c-25.55-1.089-45.38-22.685-44.291-48.235c1.089-25.55,22.685-45.38,48.235-44.291
							C2042.732,1351.639,2062.562,1373.234,2061.473,1398.785z"/>
					</g>
					<path style="fill:#7D97F4;" d="M1602.806,1443.687c-0.034-1.537,1.158-2.773,2.647-2.808l0,0
						c1.537-0.034,2.773,1.158,2.806,2.695l0,0c0.035,1.486-1.156,2.724-2.693,2.758l0,0c-0.049-0.002-0.099-0.005-0.148-0.006l0,0
						C1603.985,1446.264,1602.796,1445.123,1602.806,1443.687z M1588.849,1444.628c-1.47-0.36-2.347-1.834-2.038-3.306l0,0
						c0.36-1.472,1.836-2.398,3.306-2.038l0,0c1.472,0.36,2.352,1.783,2.041,3.306l0,0c-0.304,1.274-1.481,2.164-2.765,2.109l0,0
						C1589.194,1444.691,1589.047,1444.636,1588.849,1444.628z M1618.826,1441.993c-0.385-1.453,0.424-2.954,1.924-3.335l0,0
						c1.455-0.433,2.954,0.424,3.337,1.876l0,0c0.434,1.455-0.423,2.954-1.878,3.385l0,0l0,0l0,0
						c-0.301,0.086-0.596,0.074-0.844,0.063l0,0C1620.18,1443.932,1619.172,1443.198,1618.826,1441.993z M1573.102,1438.757
						c-1.356-0.704-1.829-2.356-1.13-3.664l0,0c0.653-1.36,2.307-1.885,3.666-1.181l0,0c1.356,0.701,1.832,2.356,1.13,3.663l0,0
						c-0.488,1.019-1.501,1.52-2.539,1.476l0,0C1573.883,1439.037,1573.49,1438.972,1573.102,1438.757z M1633.971,1436.399
						c-0.785-1.322-0.318-2.986,1.002-3.771l0,0c1.269-0.739,2.935-0.271,3.723,1l0,0c0.737,1.318,0.318,2.985-1.002,3.771l0,0l0,0
						l0,0c-0.459,0.278-1.007,0.354-1.501,0.332l0,0C1635.304,1437.694,1634.432,1437.21,1633.971,1436.399z M1559.299,1429.154
						c-1.099-0.988-1.221-2.727-0.183-3.87l0,0c0.988-1.097,2.724-1.173,3.872-0.183l0,0c1.097,0.99,1.17,2.724,0.181,3.872l0,0
						c-0.57,0.619-1.377,0.931-2.168,0.897l0,0C1560.409,1429.844,1559.773,1429.621,1559.299,1429.154z M1647.192,1427.205
						c-1.045-1.084-1.019-2.817,0.067-3.91l0,0c1.084-1.042,2.815-1.019,3.859,0.066l0,0c1.044,1.084,1.019,2.817-0.066,3.861l0,0
						l0,0l0,0c-0.568,0.568-1.272,0.787-2.013,0.756l0,0C1648.347,1427.949,1647.716,1427.672,1647.192,1427.205z
						 M1548.301,1416.453c-0.838-1.274-0.469-2.944,0.754-3.781l0,0c1.274-0.838,2.995-0.518,3.832,0.756l0,0
						c0.838,1.273,0.47,2.944-0.804,3.779l0,0c-0.461,0.329-1.061,0.501-1.607,0.478l0,0
						C1549.636,1417.649,1548.812,1417.217,1548.301,1416.453z M1657.766,1414.977c-1.303-0.798-1.678-2.448-0.931-3.754l0,0
						c0.801-1.303,2.5-1.676,3.754-0.928l0,0c1.303,0.798,1.727,2.499,0.931,3.754l0,0l0,0l0,0c-0.535,0.918-1.495,1.373-2.484,1.33
						l0,0C1658.641,1415.363,1658.151,1415.243,1657.766,1414.977z M1540.819,1401.424L1540.819,1401.424L1540.819,1401.424
						c-0.484-1.406,0.276-3.009,1.684-3.493l0,0c1.406-0.487,2.961,0.273,3.493,1.682l0,0c0.486,1.409-0.276,3.011-1.682,3.495l0,0
						c-0.352,0.084-0.701,0.168-1.049,0.153l0,0C1542.227,1403.218,1541.216,1402.532,1540.819,1401.424z M1664.969,1400.526
						c-1.47-0.409-2.295-1.931-1.835-3.396l0,0c0.454-1.417,1.977-2.245,3.396-1.836l0,0c1.465,0.459,2.293,1.979,1.836,3.396l0,0
						c0,0,0,0-0.002,0.049l0,0c-0.348,1.175-1.52,1.967-2.756,1.914l0,0C1665.409,1400.644,1665.165,1400.585,1664.969,1400.526z
						 M1537.31,1384.98c-0.135-1.491,1.013-2.83,2.503-2.964l0,0c1.493-0.132,2.83,1.013,2.965,2.504l0,0
						c0.135,1.493-1.013,2.83-2.504,2.964l0,0c-0.099-0.004-0.246-0.01-0.345-0.015l0,0
						C1538.594,1387.412,1537.448,1386.374,1537.31,1384.98z M1665.71,1381.937c0.002-0.051,0.002-0.051,0.004-0.099l0,0
						c0.002-0.05,0.005-0.099,0.009-0.198l0,0c0.064-1.485,1.304-2.67,2.836-2.605l0,0c1.482,0.063,2.666,1.352,2.602,2.836l0,0
						c-0.002,0.048-0.004,0.099-0.006,0.147l0,0c-0.002,0.05-0.004,0.099-0.006,0.15l0,0c-0.063,1.482-1.301,2.667-2.834,2.602l0,0
						C1666.831,1384.708,1665.647,1383.419,1665.71,1381.937z M1665.723,1381.64L1665.723,1381.64L1665.723,1381.64l-0.002,0.048
						l0,0C1665.723,1381.64,1665.721,1381.688,1665.723,1381.64z M1540.268,1371.339c-1.524-0.263-2.505-1.642-2.292-3.12l0,0
						c0.263-1.522,1.691-2.501,3.165-2.243l0,0c1.478,0.213,2.505,1.642,2.244,3.119l0,0c-0.206,1.377-1.436,2.364-2.821,2.305l0,0
						C1540.464,1371.396,1540.367,1371.344,1540.268,1371.339z M1664.397,1366.278c-0.335-1.448,0.621-2.943,2.07-3.229l0,0
						c1.499-0.333,2.946,0.621,3.281,2.072l0,0c0.282,1.497-0.621,2.945-2.123,3.278l0,0c-0.249,0.038-0.446,0.029-0.693,0.019l0,0
						C1665.745,1368.367,1664.642,1367.527,1664.397,1366.278z M1544.204,1355.709c-1.362-0.605-1.985-2.215-1.381-3.626l0,0
						c0.602-1.36,2.215-1.985,3.626-1.381l0,0c1.36,0.602,1.985,2.215,1.379,3.625l0,0c-0.489,1.019-1.556,1.668-2.645,1.621l0,0
						C1544.888,1355.936,1544.545,1355.823,1544.204,1355.709z M1659.271,1351.749L1659.271,1351.749
						c-0.684-1.366-0.118-3.028,1.198-3.664l0,0c1.367-0.684,2.977-0.17,3.663,1.196l0,0l0,0l0,0
						c0.684,1.366,0.168,2.979-1.198,3.663l0,0c-0.455,0.227-0.903,0.307-1.347,0.288l0,0
						C1660.646,1353.193,1659.728,1352.658,1659.271,1351.749z M1551.986,1341.577c-1.196-0.991-1.418-2.684-0.478-3.882l0,0
						c0.941-1.147,2.685-1.37,3.832-0.431l0,0c1.198,0.943,1.424,2.636,0.48,3.834l0,0c-0.575,0.718-1.432,1.078-2.272,1.042l0,0
						C1553.005,1342.116,1552.418,1341.943,1551.986,1341.577z M1650.658,1338.901L1650.658,1338.901
						c-0.991-1.133-0.869-2.861,0.264-3.853l0,0c1.181-0.99,2.907-0.865,3.901,0.265l0,0c0.991,1.133,0.867,2.862-0.264,3.853l0,0
						c-0.566,0.471-1.267,0.688-1.912,0.661l0,0C1651.907,1339.796,1651.176,1339.518,1650.658,1338.901z M1562.99,1329.764
						c-0.891-1.177-0.667-2.899,0.512-3.84l0,0c1.225-0.889,2.899-0.669,3.84,0.51l0,0c0.888,1.228,0.667,2.952-0.509,3.843l0,0
						c-0.565,0.421-1.164,0.594-1.809,0.566l0,0C1564.282,1330.81,1563.508,1330.432,1562.99,1329.764z M1639.161,1328.605
						L1639.161,1328.605c-1.25-0.847-1.524-2.592-0.68-3.794l0,0c0.846-1.25,2.592-1.572,3.794-0.728l0,0l0,0l0,0
						c1.251,0.895,1.575,2.592,0.729,3.845l0,0c-0.577,0.766-1.487,1.174-2.377,1.136l0,0
						C1640.134,1329.043,1639.643,1328.923,1639.161,1328.605z M1576.583,1321.084c-0.583-1.413,0.08-3.02,1.443-3.604l0,0
						c1.411-0.583,3.017,0.08,3.6,1.491l0,0c0.588,1.362-0.076,2.969-1.489,3.552l0,0c-0.353,0.183-0.754,0.265-1.149,0.249l0,0
						C1577.949,1322.726,1576.987,1322.09,1576.583,1321.084z M1625.499,1321.483L1625.499,1321.483
						c-1.413-0.553-2.139-2.12-1.634-3.535l0,0c0.507-1.415,2.074-2.141,3.535-1.583l0,0c0,0,0,0-0.051-0.002l0,0
						c1.466,0.507,2.192,2.074,1.636,3.487l0,0c-0.398,1.173-1.516,1.867-2.653,1.819l0,0
						C1626.035,1321.656,1625.741,1321.593,1625.499,1321.483z M1591.905,1316.04c-0.234-1.495,0.817-2.887,2.31-3.07l0,0
						c1.495-0.234,2.889,0.767,3.122,2.261l0,0c0.185,1.495-0.817,2.889-2.312,3.123l0,0c-0.2,0.04-0.347,0.033-0.545,0.025l0,0
						C1593.243,1318.326,1592.094,1317.385,1591.905,1316.04z M1610.441,1318.02L1610.441,1318.02
						c-1.478-0.162-2.61-1.497-2.447-3.026l0,0c0.162-1.48,1.497-2.563,3.028-2.446l0,0l0,0l0,0c1.478,0.162,2.56,1.495,2.446,3.025
						l0,0c-0.16,1.429-1.444,2.514-2.83,2.455l0,0C1610.54,1318.024,1610.491,1318.022,1610.441,1318.02z"/>
					<path style="fill:#7D97F4;" d="M2013.635,1461.199c-0.034-1.537,1.158-2.772,2.647-2.808l0,0
						c1.537-0.034,2.773,1.158,2.807,2.695l0,0c0.036,1.486-1.156,2.724-2.693,2.758l0,0c-0.048-0.002-0.099-0.004-0.147-0.006l0,0
						C2014.814,1463.777,2013.625,1462.636,2013.635,1461.199z M1999.678,1462.14c-1.469-0.36-2.347-1.834-2.038-3.306l0,0
						c0.36-1.472,1.836-2.398,3.305-2.038l0,0c1.472,0.36,2.352,1.783,2.041,3.306l0,0c-0.303,1.273-1.48,2.164-2.764,2.109l0,0
						C2000.024,1462.204,1999.876,1462.149,1999.678,1462.14z M2029.656,1459.506c-0.386-1.453,0.424-2.954,1.925-3.335l0,0
						c1.455-0.434,2.954,0.423,3.337,1.876l0,0c0.434,1.455-0.423,2.954-1.878,3.386l0,0l0,0l0,0
						c-0.301,0.086-0.596,0.074-0.844,0.063l0,0C2031.01,1461.444,2030.001,1460.71,2029.656,1459.506z M1983.932,1456.27
						c-1.356-0.704-1.829-2.356-1.13-3.664l0,0c0.653-1.36,2.308-1.884,3.666-1.181l0,0c1.356,0.701,1.832,2.356,1.13,3.663l0,0
						c-0.488,1.019-1.501,1.52-2.539,1.476l0,0C1984.713,1456.55,1984.319,1456.485,1983.932,1456.27z M2044.8,1453.912
						c-0.785-1.322-0.318-2.985,1.002-3.771l0,0c1.27-0.739,2.935-0.271,3.723,1l0,0c0.737,1.318,0.318,2.986-1.002,3.771l0,0l0,0
						l0,0c-0.459,0.278-1.006,0.354-1.501,0.333l0,0C2046.133,1455.207,2045.261,1454.723,2044.8,1453.912z M1970.129,1446.666
						c-1.099-0.988-1.221-2.727-0.183-3.87l0,0c0.987-1.097,2.725-1.173,3.872-0.183l0,0c1.097,0.99,1.17,2.724,0.181,3.872l0,0
						c-0.571,0.619-1.377,0.931-2.169,0.897l0,0C1971.238,1447.357,1970.602,1447.134,1970.129,1446.666z M2058.021,1444.718
						c-1.045-1.084-1.019-2.817,0.068-3.91l0,0c1.084-1.042,2.814-1.019,3.859,0.066l0,0c1.044,1.084,1.019,2.817-0.065,3.861l0,0
						l0,0l0,0c-0.568,0.568-1.272,0.787-2.013,0.756l0,0C2059.177,1445.461,2058.545,1445.185,2058.021,1444.718z M1959.13,1433.966
						c-0.838-1.274-0.469-2.944,0.754-3.781l0,0c1.274-0.838,2.994-0.518,3.832,0.756l0,0c0.838,1.274,0.469,2.944-0.805,3.779l0,0
						c-0.461,0.329-1.061,0.501-1.607,0.478l0,0C1960.465,1435.162,1959.642,1434.73,1959.13,1433.966z M2068.595,1432.49
						c-1.303-0.798-1.678-2.448-0.93-3.754l0,0c0.8-1.303,2.499-1.676,3.754-0.928l0,0c1.303,0.798,1.726,2.499,0.93,3.754l0,0l0,0
						l0,0c-0.535,0.918-1.495,1.373-2.484,1.331l0,0C2069.471,1432.875,2068.981,1432.755,2068.595,1432.49z M1951.648,1418.937
						L1951.648,1418.937L1951.648,1418.937c-0.484-1.406,0.276-3.009,1.685-3.493l0,0c1.406-0.486,2.96,0.274,3.492,1.682l0,0
						c0.486,1.408-0.276,3.011-1.682,3.495l0,0c-0.352,0.084-0.701,0.168-1.049,0.154l0,0
						C1953.057,1420.731,1952.046,1420.044,1951.648,1418.937z M2075.799,1418.038c-1.47-0.408-2.295-1.931-1.836-3.396l0,0
						c0.454-1.417,1.977-2.245,3.396-1.836l0,0c1.466,0.459,2.293,1.979,1.836,3.396l0,0c0,0,0,0-0.002,0.049l0,0
						c-0.348,1.175-1.52,1.967-2.756,1.914l0,0C2076.238,1418.156,2075.994,1418.097,2075.799,1418.038z M1948.139,1402.493
						c-0.135-1.49,1.013-2.83,2.504-2.965l0,0c1.493-0.132,2.83,1.013,2.964,2.504l0,0c0.135,1.493-1.013,2.829-2.503,2.964l0,0
						c-0.099-0.004-0.246-0.011-0.345-0.015l0,0C1949.423,1404.925,1948.278,1403.887,1948.139,1402.493z M2076.54,1399.449
						c0.002-0.051,0.002-0.051,0.004-0.099l0,0c0.002-0.051,0.004-0.099,0.009-0.198l0,0c0.063-1.484,1.303-2.67,2.836-2.605l0,0
						c1.482,0.063,2.665,1.352,2.602,2.836l0,0c-0.002,0.048-0.004,0.099-0.006,0.147l0,0c-0.002,0.051-0.004,0.099-0.007,0.15l0,0
						c-0.063,1.482-1.301,2.667-2.834,2.602l0,0C2077.66,1402.22,2076.477,1400.931,2076.54,1399.449z M2076.553,1399.153
						L2076.553,1399.153L2076.553,1399.153l-0.002,0.048l0,0C2076.553,1399.153,2076.551,1399.201,2076.553,1399.153z
						 M1951.098,1388.852c-1.525-0.263-2.506-1.642-2.293-3.12l0,0c0.263-1.522,1.691-2.501,3.164-2.242l0,0
						c1.478,0.213,2.505,1.642,2.244,3.119l0,0c-0.206,1.377-1.436,2.364-2.821,2.305l0,0
						C1951.293,1388.909,1951.197,1388.856,1951.098,1388.852z M2075.227,1383.791c-0.335-1.448,0.621-2.943,2.069-3.229l0,0
						c1.499-0.333,2.946,0.621,3.281,2.072l0,0c0.282,1.497-0.621,2.946-2.123,3.278l0,0c-0.249,0.038-0.446,0.029-0.693,0.019l0,0
						C2076.574,1385.88,2075.471,1385.039,2075.227,1383.791z M1955.033,1373.221c-1.362-0.605-1.985-2.215-1.381-3.625l0,0
						c0.602-1.36,2.215-1.985,3.625-1.381l0,0c1.36,0.602,1.985,2.215,1.379,3.626l0,0c-0.488,1.019-1.556,1.668-2.644,1.621l0,0
						C1955.718,1373.449,1955.374,1373.335,1955.033,1373.221z M2070.101,1369.261L2070.101,1369.261
						c-0.684-1.366-0.118-3.028,1.198-3.663l0,0c1.366-0.684,2.977-0.171,3.664,1.196l0,0l0,0l0,0
						c0.684,1.366,0.168,2.979-1.198,3.663l0,0c-0.455,0.227-0.903,0.307-1.347,0.288l0,0
						C2071.475,1370.705,2070.558,1370.171,2070.101,1369.261z M1962.816,1359.089c-1.196-0.991-1.419-2.684-0.478-3.882l0,0
						c0.941-1.147,2.685-1.37,3.832-0.432l0,0c1.198,0.943,1.423,2.636,0.48,3.834l0,0c-0.575,0.718-1.432,1.078-2.272,1.042l0,0
						C1963.835,1359.629,1963.248,1359.456,1962.816,1359.089z M2061.488,1356.413L2061.488,1356.413
						c-0.992-1.133-0.87-2.862,0.263-3.853l0,0c1.181-0.99,2.907-0.865,3.901,0.266l0,0c0.992,1.133,0.867,2.862-0.263,3.853l0,0
						c-0.567,0.471-1.268,0.688-1.912,0.661l0,0C2062.736,1357.308,2062.006,1357.03,2061.488,1356.413z M1973.819,1347.276
						c-0.89-1.177-0.667-2.899,0.512-3.84l0,0c1.225-0.888,2.899-0.669,3.84,0.509l0,0c0.889,1.228,0.668,2.952-0.509,3.843l0,0
						c-0.564,0.421-1.164,0.594-1.809,0.566l0,0C1975.112,1348.323,1974.338,1347.944,1973.819,1347.276z M2049.99,1346.117
						L2049.99,1346.117c-1.25-0.846-1.524-2.592-0.68-3.794l0,0c0.846-1.25,2.592-1.573,3.794-0.728l0,0l0,0l0,0
						c1.25,0.895,1.575,2.592,0.728,3.845l0,0c-0.577,0.766-1.486,1.175-2.377,1.137l0,0
						C2050.963,1346.555,2050.472,1346.435,2049.99,1346.117z M1987.412,1338.596c-0.583-1.413,0.081-3.019,1.443-3.604l0,0
						c1.411-0.583,3.017,0.08,3.6,1.491l0,0c0.587,1.362-0.076,2.969-1.489,3.552l0,0c-0.354,0.184-0.754,0.266-1.149,0.249l0,0
						C1988.779,1340.238,1987.817,1339.602,1987.412,1338.596z M2036.328,1338.996L2036.328,1338.996
						c-1.413-0.553-2.139-2.12-1.634-3.535l0,0c0.508-1.415,2.074-2.141,3.535-1.583l0,0c0,0,0,0-0.051-0.002l0,0
						c1.465,0.508,2.192,2.074,1.636,3.487l0,0c-0.398,1.172-1.516,1.867-2.653,1.819l0,0
						C2036.865,1339.169,2036.57,1339.105,2036.328,1338.996z M2002.734,1333.552c-0.234-1.495,0.817-2.887,2.309-3.07l0,0
						c1.495-0.234,2.889,0.767,3.123,2.261l0,0c0.186,1.495-0.817,2.889-2.312,3.123l0,0c-0.2,0.04-0.348,0.034-0.545,0.025l0,0
						C2004.073,1335.839,2002.923,1334.897,2002.734,1333.552z M2021.27,1335.532L2021.27,1335.532
						c-1.478-0.162-2.611-1.497-2.446-3.026l0,0c0.162-1.48,1.497-2.562,3.028-2.446l0,0l0,0l0,0
						c1.478,0.162,2.56,1.495,2.447,3.025l0,0c-0.16,1.43-1.445,2.514-2.83,2.455l0,0
						C2021.369,1335.536,2021.321,1335.534,2021.27,1335.532z"/>
				</g>
				
					<linearGradient id="SVGID_00000075150130235396543470000010202736992296441988_" gradientUnits="userSpaceOnUse" x1="1439.8649" y1="970.9033" x2="1407.2828" y2="1264.1415" gradientTransform="matrix(0.9991 0.0426 -0.0426 0.9991 -2.0954 -163.811)">
					<stop  offset="0" style="stop-color:#4F52FF"/>
					<stop  offset="1" style="stop-color:#4042E2"/>
				</linearGradient>
				<path style="fill:url(#SVGID_00000075150130235396543470000010202736992296441988_);" d="M1404.549,973.758
					c-0.605,14.179-12.588,25.183-26.767,24.578c-14.179-0.605-25.183-12.588-24.578-26.767
					c0.604-14.178,12.588-25.182,26.767-24.578C1394.149,947.595,1405.153,959.579,1404.549,973.758z"/>
				
					<linearGradient id="SVGID_00000064353700077071149060000016779507445740494737_" gradientUnits="userSpaceOnUse" x1="1428.1217" y1="1229.6591" x2="1523.0432" y2="1229.6591" gradientTransform="matrix(0.9991 0.0426 -0.0426 0.9991 -2.0954 -163.811)">
					<stop  offset="0" style="stop-color:#09005D"/>
					<stop  offset="1" style="stop-color:#1A0F91"/>
				</linearGradient>
				<path style="fill:url(#SVGID_00000064353700077071149060000016779507445740494737_);" d="M1369.834,1184.798
					c0,0,60.975,10.459,97.913-68.15l-14.865-34.286c-5.06-11.67-18.679-16.957-30.287-11.759l-35.944,16.097
					c-7.895,3.535-13.114,11.228-13.483,19.87L1369.834,1184.798z"/>
				
					<linearGradient id="SVGID_00000026847018337426769080000009613154885286948019_" gradientUnits="userSpaceOnUse" x1="1471.1782" y1="979.8808" x2="1440.1196" y2="1259.4077" gradientTransform="matrix(0.9991 0.0426 -0.0426 0.9991 -2.0954 -163.811)">
					<stop  offset="0" style="stop-color:#4F52FF"/>
					<stop  offset="1" style="stop-color:#4042E2"/>
				</linearGradient>
				<path style="fill:url(#SVGID_00000026847018337426769080000009613154885286948019_);" d="M1383.457,984.749
					c-0.603-1.591-2.984-0.977-2.742,0.708l16.324,113.578c0.371,2.584,2.015,4.809,4.375,5.924c2.36,1.115,5.123,0.971,7.354-0.383
					l6.714-4.074c5.582-3.387,7.953-10.275,5.639-16.38L1383.457,984.749z"/>
				
					<linearGradient id="SVGID_00000009577670087018678530000015573934622902580613_" gradientUnits="userSpaceOnUse" x1="2353.6245" y1="1072.4224" x2="2321.0425" y2="1365.661" gradientTransform="matrix(0.9991 0.0426 -0.0426 0.9991 -2.0954 -163.811)">
					<stop  offset="0" style="stop-color:#4F52FF"/>
					<stop  offset="1" style="stop-color:#4042E2"/>
				</linearGradient>
				<path style="fill:url(#SVGID_00000009577670087018678530000015573934622902580613_);" d="M2277.412,1010.966
					c-0.604,14.179,10.4,26.163,24.578,26.767c14.178,0.604,26.162-10.4,26.767-24.578c0.604-14.178-10.4-26.162-24.578-26.767
					C2290,985.783,2278.016,996.787,2277.412,1010.966z"/>
				
					<linearGradient id="SVGID_00000168836381210176121690000000035931395553750454_" gradientUnits="userSpaceOnUse" x1="2258.2412" y1="1229.6495" x2="2353.1633" y2="1229.6495" gradientTransform="matrix(0.9991 0.0426 -0.0426 0.9991 -2.0954 -163.811)">
					<stop  offset="0" style="stop-color:#09005D"/>
					<stop  offset="1" style="stop-color:#1A0F91"/>
				</linearGradient>
				<path style="fill:url(#SVGID_00000168836381210176121690000000035931395553750454_);" d="M2294.042,1224.194
					c0,0-61.644,5.232-91.758-76.235l17.729-32.897c6.035-11.197,20.054-15.306,31.178-9.138l34.444,19.097
					c7.565,4.195,12.111,12.303,11.743,20.945L2294.042,1224.194z"/>
				
					<linearGradient id="SVGID_00000132058153694920520540000006043674299993397437_" gradientUnits="userSpaceOnUse" x1="2335.6169" y1="1071.001" x2="2304.2412" y2="1353.3816" gradientTransform="matrix(0.9991 0.0426 -0.0426 0.9991 -2.0954 -163.811)">
					<stop  offset="0" style="stop-color:#4F52FF"/>
					<stop  offset="1" style="stop-color:#4042E2"/>
				</linearGradient>
				<path style="fill:url(#SVGID_00000132058153694920520540000006043674299993397437_);" d="M2300.164,1024.65l-25.818,111.291
					c-0.615,2.651-2.519,4.816-5.069,5.765c-2.551,0.949-5.407,0.554-7.604-1.05l-5.94-4.336c-5.274-3.85-7.05-10.914-4.225-16.8
					l45.984-95.807C2298.228,1022.178,2300.548,1022.993,2300.164,1024.65z"/>
				
					<linearGradient id="SVGID_00000116933406904273495780000012969515313149523894_" gradientUnits="userSpaceOnUse" x1="1704.2579" y1="1131.0927" x2="3061.5391" y2="2358.489" gradientTransform="matrix(0.9991 0.0426 -0.0426 0.9991 -2.0954 -163.811)">
					<stop  offset="0" style="stop-color:#4F52FF"/>
					<stop  offset="1" style="stop-color:#4042E2"/>
				</linearGradient>
				<path style="fill:url(#SVGID_00000116933406904273495780000012969515313149523894_);" d="M1543.877,1219.036
					c-13.931-0.594-25.343-11.747-25.996-25.941c-0.69-15.015,10.924-27.745,25.936-28.436
					c198.378-9.117,379.025-1.987,552.251,21.798c14.892,2.042,25.304,15.772,23.26,30.661
					c-2.045,14.891-15.724,25.316-30.661,23.26c-169.909-23.324-347.311-30.308-542.35-21.347
					C1545.495,1219.069,1544.683,1219.07,1543.877,1219.036z"/>
				<g>
					<path style="fill:#91B3FA;" d="M1808.437,1510.092c-109.874-4.684-220.393-14.848-330.833-30.467
						c-40.491-5.726-69.623-42.971-67.761-86.633l1.878-44.058c1.847-43.324,33.763-77.933,74.24-80.502
						c238.735-15.148,453.85-6.348,657.648,26.907c39.435,6.435,67.801,43.558,65.977,86.353l-1.943,45.566
						c-1.856,43.553-33.906,78.173-74.551,80.525C2026.046,1513.985,1917.56,1514.744,1808.437,1510.092z M1832.571,1269.054
						c-110.42-4.707-225.313-3.189-346.287,4.491c-37.856,2.401-67.712,34.906-69.447,75.609l-1.878,44.058
						c-1.749,41.019,25.489,75.989,63.363,81.347c219.79,31.078,439.987,40.537,654.474,28.117
						c38.007-2.201,67.984-34.716,69.728-75.633l1.943-45.567c1.714-40.208-24.804-75.065-61.684-81.082
						C2042.614,1284.046,1939.698,1273.621,1832.571,1269.054z"/>
				</g>
			</g>
			<g>
				
					<ellipse transform="matrix(0.1502 -0.9887 0.9887 0.1502 -490.2787 3477.5046)" style="opacity:0.9;fill:#FFFFFF;" cx="1777.702" cy="2023.944" rx="189.334" ry="196.532"/>
				<g>
					<path style="fill:#91B3FA;" d="M1899.811,1943.316l-60.143,1.493l-1.363-54.917c-0.355-14.293-13.332-25.566-28.986-25.177
						l-84.338,2.094c-15.653,0.389-28.056,12.291-27.701,26.584l1.363,54.917l-60.143,1.493
						c-15.653,0.389-28.055,12.291-27.701,26.584l1.912,77.01c0.355,14.293,13.332,25.565,28.985,25.177l60.143-1.493l1.363,54.917
						c0.355,14.293,13.332,25.566,28.986,25.177l84.338-2.094c15.653-0.389,28.055-12.291,27.701-26.584l-1.363-54.917l60.143-1.493
						c15.653-0.389,28.056-12.291,27.701-26.584l-1.911-77.01C1928.441,1954.199,1915.464,1942.927,1899.811,1943.316z"/>
					<path style="fill:#7D97F4;" d="M1731.81,2141.892c-6.4,0.159-11.725-4.467-11.871-10.311l-1.743-70.198l-76.879,1.908
						c-6.401,0.159-11.724-4.467-11.869-10.311l-1.912-77.01c-0.145-5.844,4.943-10.728,11.343-10.887l76.879-1.908l-1.743-70.198
						c-0.145-5.844,4.944-10.729,11.344-10.887l84.337-2.093c6.4-0.159,11.726,4.467,11.871,10.311l1.743,70.198l76.879-1.908
						c6.4-0.159,11.724,4.466,11.869,10.311l1.911,77.01c0.145,5.844-4.943,10.728-11.343,10.887l-76.879,1.908l1.743,70.198
						c0.145,5.844-4.944,10.729-11.344,10.887L1731.81,2141.892z"/>
				</g>
			</g>
		</g>
		<g>
			<path style="fill:#7D97F4;" d="M3190.461,1088.619h-784.205V774.249c0-19.508,15.815-35.323,35.323-35.323l745.48-12.612
				c22.865-0.387,41.609,18.043,41.609,40.911v283.187C3228.669,1071.513,3211.563,1088.619,3190.461,1088.619z"/>
			<path style="fill:#FFFFFF;" d="M2440.248,986.284c-0.938,0-1.698-0.759-1.698-1.697v-72.183c0-0.938,0.759-1.697,1.698-1.697
				s1.698,0.759,1.698,1.697v72.183C2441.945,985.525,2441.186,986.284,2440.248,986.284z"/>
			<path style="fill:#FFFFFF;" d="M3159.766,1057.171h-90.499c-0.938,0-1.698-0.759-1.698-1.697c0-0.938,0.759-1.698,1.698-1.698
				h90.499c18.394,0,33.355-13.236,33.355-29.506v-63.237c0-0.938,0.759-1.697,1.698-1.697s1.698,0.759,1.698,1.697v63.237
				C3196.517,1042.411,3180.029,1057.171,3159.766,1057.171z"/>
			<path style="fill:#FFFFFF;" d="M3194.819,939.098c-0.938,0-1.698-0.759-1.698-1.697V829.004c0-0.938,0.759-1.697,1.698-1.697
				s1.698,0.759,1.698,1.697v108.397C3196.517,938.339,3195.757,939.098,3194.819,939.098z"/>
			<path style="fill:#FFFFFF;" d="M2668.274,768.627c-0.925,0-1.684-0.743-1.698-1.673c-0.013-0.937,0.736-1.707,1.671-1.722
				l176.141-2.652c0.01,0,0.02,0,0.027,0c0.925,0,1.684,0.743,1.698,1.673c0.013,0.937-0.736,1.707-1.671,1.722l-176.141,2.652
				C2668.29,768.627,2668.28,768.627,2668.274,768.627z"/>
			<path style="fill:#FFFFFF;" d="M2440.248,892.128c-0.938,0-1.698-0.759-1.698-1.698v-91.706c0-16.844,15.3-30.548,34.105-30.548
				l152.472-2.296c0.01,0,0.02,0,0.027,0c0.925,0,1.684,0.743,1.698,1.673c0.013,0.937-0.736,1.707-1.671,1.722l-152.499,2.296
				c-16.961,0-30.737,12.18-30.737,27.153v91.706C2441.945,891.369,2441.186,892.128,2440.248,892.128z"/>
			<path style="fill:#7D97F4;" d="M2406.256,1016.695l-2.239,136.401c0,5.151,5.987,7.985,9.971,4.721l99.967-81.896
				L2406.256,1016.695z"/>
			<path style="opacity:0.5;fill:#FFFFFF;" d="M3144.105,844.542h-663.137c-2.135,0-3.867-1.731-3.867-3.867v-21.25
				c0-2.135,1.731-3.867,3.867-3.867h663.137c2.135,0,3.867,1.731,3.867,3.867v21.25
				C3147.972,842.811,3146.24,844.542,3144.105,844.542z"/>
			<path style="opacity:0.5;fill:#FFFFFF;" d="M2713.099,926.896h-232.131c-2.135,0-3.867-1.731-3.867-3.867v-21.25
				c0-2.135,1.731-3.867,3.867-3.867h232.131c2.135,0,3.867,1.731,3.867,3.867v21.25
				C2716.966,925.164,2715.234,926.896,2713.099,926.896z"/>
			<path style="opacity:0.5;fill:#FFFFFF;" d="M3144.105,1006.574H2928.84c-2.135,0-3.867-1.731-3.867-3.867v-21.25
				c0-2.135,1.731-3.867,3.867-3.867h215.265c2.135,0,3.867,1.731,3.867,3.867v21.25
				C3147.972,1004.843,3146.24,1006.574,3144.105,1006.574z"/>
			<path style="opacity:0.5;fill:#FFFFFF;" d="M3144.105,928.183h-389.542c-2.135,0-3.867-1.731-3.867-3.867v-21.25
				c0-2.135,1.731-3.867,3.867-3.867h389.542c2.135,0,3.867,1.731,3.867,3.867v21.25
				C3147.972,926.452,3146.24,928.183,3144.105,928.183z"/>
			<path style="opacity:0.5;fill:#FFFFFF;" d="M2894.871,1006.574h-413.903c-2.135,0-3.867-1.731-3.867-3.867v-21.25
				c0-2.135,1.731-3.867,3.867-3.867h413.903c2.135,0,3.867,1.731,3.867,3.867v21.25
				C2898.738,1004.843,2897.007,1006.574,2894.871,1006.574z"/>
		</g>
		<g>
			<g>
				
					<ellipse transform="matrix(0.1126 -0.9936 0.9936 0.1126 -1764.8718 3423.939)" style="fill:#FFFFFF;" cx="1034.568" cy="2700.091" rx="297.441" ry="299.009"/>
				
					<ellipse transform="matrix(0.1127 -0.9936 0.9936 0.1127 -1764.9347 3423.696)" style="fill:#7D97F4;" cx="1034.568" cy="2700.091" rx="287.551" ry="289.067"/>
				<path style="opacity:0.8;fill:#FFFFFF;" d="M1300.935,2719.506c-0.07,0-0.139-0.002-0.209-0.007
					c-1.87-0.113-3.296-1.72-3.183-3.592c0.666-11.022,0.633-22.171-0.099-33.138c-0.123-1.87,1.293-3.488,3.163-3.612
					c1.883-0.156,3.491,1.291,3.614,3.161c0.749,11.252,0.782,22.692,0.099,33.997
					C1304.21,2718.116,1302.715,2719.506,1300.935,2719.506z"/>
				<path style="opacity:0.8;fill:#FFFFFF;" d="M1284.869,2611.646c-1.376,0-2.672-0.845-3.183-2.211
					c-34.811-93.42-118.192-158.453-217.599-169.724c-15.864-1.795-31.913-2.175-47.714-1.127c-1.833,0.163-3.491-1.29-3.614-3.161
					c-0.123-1.872,1.293-3.488,3.163-3.612c16.205-1.076,32.663-0.69,48.928,1.154c101.963,11.561,187.489,78.272,223.202,174.1
					c0.653,1.757-0.239,3.711-1.996,4.366C1285.664,2611.576,1285.263,2611.646,1284.869,2611.646z"/>
				
					<ellipse transform="matrix(0.1126 -0.9936 0.9936 0.1126 -1776.5109 3421.9978)" style="opacity:0.78;fill:#FFFFFF;" cx="1027.604" cy="2705.606" rx="243.376" ry="244.66"/>
			</g>
			<g>
				
					<linearGradient id="SVGID_00000125597463186363189560000007080579784036889501_" gradientUnits="userSpaceOnUse" x1="3944.0032" y1="31.8505" x2="3382.4397" y2="702.8704" gradientTransform="matrix(-0.6091 0.8093 0.801 0.6028 3077.5532 -501.5264)">
					<stop  offset="0" style="stop-color:#FE7062"/>
					<stop  offset="1" style="stop-color:#FF928E"/>
				</linearGradient>
				<path style="fill:url(#SVGID_00000125597463186363189560000007080579784036889501_);" d="M837.554,2569.881
					c-0.184,6.208,0.061,12.38,0.461,18.562c0.399,6.18,1.009,12.354,1.9,18.497c1.755,12.284,4.237,24.54,7.986,36.505
					c1.879,5.98,4.052,11.887,6.481,17.72c2.518,5.796,5.302,11.512,8.493,17.053c6.464,11.009,14.563,21.368,24.678,29.852
					l1.883,1.601l1.989,1.478c1.342,0.973,2.63,1.995,4.025,2.923c2.88,1.763,5.716,3.668,8.785,5.062l2.269,1.127l1.137,0.561
					l1.167,0.467l4.682,1.857c1.561,0.631,3.169,1.034,4.759,1.551c1.597,0.477,3.189,1.013,4.806,1.337
					c12.896,3.133,25.997,4.092,38.799,3.713c12.825-0.358,25.445-1.779,37.871-3.726c12.416-2.009,24.642-4.538,36.752-7.22
					c24.178-5.419,47.972-11.718,71.389-16.126c5.852-1.096,11.664-1.995,17.399-2.646l4.287-0.448l4.227-0.281
					c1.395-0.117,2.835-0.16,4.274-0.2c1.434-0.034,2.879-0.124,4.3-0.097c11.424-0.096,22.613,1.047,32.888,4.063
					c5.111,1.56,10.002,3.509,14.573,5.978c4.544,2.508,8.87,5.372,12.802,8.816c7.978,6.756,14.485,15.608,20.062,25.431
					c2.723,4.955,5.23,10.156,7.535,15.523l1.675,4.072c0.569,1.357,1.118,2.728,1.607,4.127l1.58,4.17
					c0.517,1.398,0.975,2.822,1.467,4.237c1.022,2.82,1.936,5.694,2.854,8.578c1.006,2.866,1.766,5.806,2.727,8.718l2.631,8.838
					c0.867,2.965,1.694,5.949,2.676,8.933l0.005,0.016c0.11,0.336,0.472,0.515,0.808,0.401c0.244-0.083,0.407-0.298,0.436-0.538
					c0.374-3.126,0.625-6.257,0.856-9.398c0.129-3.132,0.286-6.282,0.298-9.429c0.011-6.295-0.212-12.617-0.871-18.938
					c-0.565-6.333-1.679-12.639-2.994-18.961c-1.514-6.275-3.274-12.574-5.71-18.725c-2.409-6.168-5.441-12.174-9.032-17.969
					c-0.932-1.432-1.91-2.835-2.871-4.252l-3.149-4.101c-2.204-2.663-4.476-5.311-7.04-7.694
					c-10.04-9.781-22.852-16.802-36.059-20.601c-13.245-3.815-26.705-5.002-39.768-4.841c-1.644-0.018-3.262,0.085-4.892,0.133
					c-1.626,0.057-3.25,0.107-4.912,0.259l-4.948,0.403l-4.86,0.575c-6.448,0.826-12.763,1.904-18.966,3.156
					c-12.421,2.478-24.525,5.46-36.474,8.599l-35.59,9.292c-11.791,3.023-23.556,5.859-35.321,8.163
					c-11.753,2.325-23.516,4.16-35.197,4.975c-11.675,0.871-23.265,0.615-34.293-1.478c-1.404-0.196-2.73-0.585-4.083-0.912
					c-1.336-0.362-2.735-0.596-4.033-1.044l-3.93-1.286l-0.987-0.319l-0.941-0.402l-1.887-0.802
					c-2.586-0.963-4.901-2.373-7.329-3.627c-1.193-0.688-2.348-1.507-3.53-2.252l-1.768-1.142l-1.684-1.271
					c-4.599-3.255-8.754-7.18-12.733-11.302c-3.982-4.142-7.471-8.792-10.89-13.524c-3.329-4.809-6.348-9.88-9.156-15.103
					c-2.725-5.27-5.247-10.682-7.511-16.233c-2.21-5.57-4.274-11.228-6.155-16.971c-1.841-5.755-3.479-11.595-4.929-17.496
					c-2.861-11.804-5.2-23.84-6.534-36.005l-0.002-0.018c-0.038-0.345-0.347-0.592-0.692-0.55
					C837.798,2569.307,837.563,2569.572,837.554,2569.881z"/>
				
					<linearGradient id="SVGID_00000079480881271270044510000006148571368314545081_" gradientUnits="userSpaceOnUse" x1="3701.4609" y1="269.8933" x2="3774.9963" y2="269.8933" gradientTransform="matrix(-0.6091 0.8093 0.801 0.6028 3077.5532 -501.5264)">
					<stop  offset="0" style="stop-color:#FE7062"/>
					<stop  offset="1" style="stop-color:#FF928E"/>
				</linearGradient>
				<path style="fill:url(#SVGID_00000079480881271270044510000006148571368314545081_);" d="M1001.563,2717.726
					c0.065-0.087,0.127-0.177,0.184-0.272l35.424-58.664c0.901-1.491,0.432-3.421-1.046-4.309c-1.478-0.889-3.405-0.396-4.307,1.091
					l-35.424,58.664c-0.901,1.491-0.432,3.421,1.046,4.309C998.824,2719.378,1000.604,2719.002,1001.563,2717.726z"/>
				
					<linearGradient id="SVGID_00000118355053110484324030000017142187698339935365_" gradientUnits="userSpaceOnUse" x1="3681.2251" y1="240.6476" x2="3801.8994" y2="240.6476" gradientTransform="matrix(-0.6091 0.8093 0.801 0.6028 3077.5532 -501.5264)">
					<stop  offset="0" style="stop-color:#FE7062"/>
					<stop  offset="1" style="stop-color:#FF928E"/>
				</linearGradient>
				<path style="fill:url(#SVGID_00000118355053110484324030000017142187698339935365_);" d="M962.394,2722.353
					c0.048-0.063,0.093-0.128,0.137-0.196l62.85-97.781c0.942-1.466,0.529-3.408-0.924-4.339c-1.452-0.93-3.386-0.492-4.336,0.97
					l-62.85,97.781c-0.942,1.466-0.529,3.408,0.924,4.338C959.581,2724.014,961.411,2723.659,962.394,2722.353z"/>
				
					<linearGradient id="SVGID_00000007392042053861092420000000589740633901819309_" gradientUnits="userSpaceOnUse" x1="3654.9844" y1="209.2452" x2="3821.4653" y2="209.2452" gradientTransform="matrix(-0.6091 0.8093 0.801 0.6028 3077.5532 -501.5264)">
					<stop  offset="0" style="stop-color:#FE7062"/>
					<stop  offset="1" style="stop-color:#FF928E"/>
				</linearGradient>
				<path style="fill:url(#SVGID_00000007392042053861092420000000589740633901819309_);" d="M1019.671,2587.248
					c1.081-1.437,0.849-3.44-0.521-4.48c-1.373-1.042-3.371-0.722-4.461,0.715l-97.94,129.163c-0.002,0.003-0.005,0.007-0.005,0.007
					c-1.084,1.44-0.851,3.444,0.519,4.484c1.374,1.042,3.371,0.722,4.461-0.716l97.94-129.163
					C1019.666,2587.255,1019.669,2587.251,1019.671,2587.248z"/>
				
					<linearGradient id="SVGID_00000041292951012577330770000018329884661658394762_" gradientUnits="userSpaceOnUse" x1="3644.0112" y1="180.1653" x2="3827.7583" y2="180.1653" gradientTransform="matrix(-0.6091 0.8093 0.801 0.6028 3077.5532 -501.5264)">
					<stop  offset="0" style="stop-color:#FE7062"/>
					<stop  offset="1" style="stop-color:#FF928E"/>
				</linearGradient>
				<path style="fill:url(#SVGID_00000041292951012577330770000018329884661658394762_);" d="M1004.346,2561.664
					c1.03-1.368,0.791-3.307-0.548-4.359c-1.356-1.065-3.328-0.817-4.404,0.554l-111.024,141.484
					c-1.091,1.368-0.848,3.345,0.508,4.411c1.356,1.065,3.328,0.817,4.404-0.553l111.024-141.484
					C1004.32,2561.699,1004.333,2561.681,1004.346,2561.664z"/>
				
					<linearGradient id="SVGID_00000183244704045079988740000010955878026196487310_" gradientUnits="userSpaceOnUse" x1="3641.3342" y1="149.526" x2="3822.9485" y2="149.526" gradientTransform="matrix(-0.6091 0.8093 0.801 0.6028 3077.5532 -501.5264)">
					<stop  offset="0" style="stop-color:#FE7062"/>
					<stop  offset="1" style="stop-color:#FF928E"/>
				</linearGradient>
				<path style="fill:url(#SVGID_00000183244704045079988740000010955878026196487310_);" d="M874.642,2682.995
					c0.014-0.018,0.027-0.036,0.04-0.054l103.857-144.173c1.018-1.414,0.709-3.377-0.69-4.384c-1.4-1.007-3.368-0.669-4.379,0.736
					l-103.857,144.173c-1.018,1.414-0.709,3.377,0.69,4.385C871.685,2684.671,873.613,2684.363,874.642,2682.995z"/>
				
					<linearGradient id="SVGID_00000157275414964967632570000007738853757799714747_" gradientUnits="userSpaceOnUse" x1="3650.2507" y1="118.2106" x2="3809.1501" y2="118.2106" gradientTransform="matrix(-0.6091 0.8093 0.801 0.6028 3077.5532 -501.5264)">
					<stop  offset="0" style="stop-color:#FE7062"/>
					<stop  offset="1" style="stop-color:#FF928E"/>
				</linearGradient>
				<path style="fill:url(#SVGID_00000157275414964967632570000007738853757799714747_);" d="M858.314,2653.217
					c0.019-0.026,0.038-0.052,0.057-0.078l89.317-126.32c1.006-1.423,0.68-3.383-0.73-4.377c-1.409-0.995-3.325-0.669-4.372,0.775
					l-89.318,126.32c-1.006,1.423-0.68,3.383,0.73,4.378C855.382,2654.89,857.293,2654.573,858.314,2653.217z"/>
				
					<linearGradient id="SVGID_00000145052522541100694370000010917525146110414764_" gradientUnits="userSpaceOnUse" x1="3669.303" y1="90.621" x2="3788.1475" y2="90.621" gradientTransform="matrix(-0.6091 0.8093 0.801 0.6028 3077.5532 -501.5264)">
					<stop  offset="0" style="stop-color:#FE7062"/>
					<stop  offset="1" style="stop-color:#FF928E"/>
				</linearGradient>
				<path style="fill:url(#SVGID_00000145052522541100694370000010917525146110414764_);" d="M850.413,2620.754
					c0.044-0.058,0.086-0.119,0.126-0.181l62.107-96.233c0.92-1.425,0.492-3.341-0.954-4.279c-1.447-0.939-3.375-0.528-4.284,0.88
					l-62.108,96.233c-0.92,1.425-0.492,3.34,0.954,4.279C847.639,2622.351,849.453,2622.03,850.413,2620.754z"/>
				
					<linearGradient id="SVGID_00000134246068354624639740000018144227305023025033_" gradientUnits="userSpaceOnUse" x1="3655.9868" y1="297.4136" x2="4020.6367" y2="596.5878" gradientTransform="matrix(-0.6091 0.8093 0.801 0.6028 3077.5532 -501.5264)">
					<stop  offset="0" style="stop-color:#FE7062"/>
					<stop  offset="1" style="stop-color:#FF928E"/>
				</linearGradient>
				<path style="fill:url(#SVGID_00000134246068354624639740000018144227305023025033_);" d="M1137.149,2689.833
					c0.914-1.214,0.849-2.938-0.223-4.061c-1.191-1.248-3.175-1.281-4.431-0.074l-84.671,81.337
					c-1.258,1.203-1.309,3.197-0.118,4.445c1.191,1.248,3.175,1.281,4.431,0.074l84.671-81.338
					C1136.933,2690.096,1137.047,2689.967,1137.149,2689.833z"/>
				
					<linearGradient id="SVGID_00000062884530045273516320000001992714748810910095_" gradientUnits="userSpaceOnUse" x1="3643.9763" y1="312.0544" x2="4008.6299" y2="611.2315" gradientTransform="matrix(-0.6091 0.8093 0.801 0.6028 3077.5532 -501.5264)">
					<stop  offset="0" style="stop-color:#FE7062"/>
					<stop  offset="1" style="stop-color:#FF928E"/>
				</linearGradient>
				<path style="fill:url(#SVGID_00000062884530045273516320000001992714748810910095_);" d="M1164.542,2690.144
					c1.001-1.33,0.808-3.217-0.467-4.291c-1.319-1.112-3.297-0.931-4.418,0.403l-99.894,118.865
					c-1.144,1.338-0.961,3.316,0.359,4.427c1.319,1.112,3.297,0.931,4.418-0.403l99.894-118.865
					C1164.472,2690.236,1164.508,2690.19,1164.542,2690.144z"/>
				
					<linearGradient id="SVGID_00000108999103657881699660000017074500350177212854_" gradientUnits="userSpaceOnUse" x1="3631.364" y1="327.43" x2="3996.0181" y2="626.6077" gradientTransform="matrix(-0.6091 0.8093 0.801 0.6028 3077.5532 -501.5264)">
					<stop  offset="0" style="stop-color:#FE7062"/>
					<stop  offset="1" style="stop-color:#FF928E"/>
				</linearGradient>
				<path style="fill:url(#SVGID_00000108999103657881699660000017074500350177212854_);" d="M1192.831,2697.894
					c1.03-1.368,0.791-3.308-0.549-4.359c-1.357-1.065-3.328-0.816-4.403,0.555l-114.818,146.449
					c-1.101,1.384-0.847,3.346,0.51,4.41c1.357,1.065,3.328,0.816,4.403-0.555l114.818-146.449
					C1192.806,2697.927,1192.818,2697.911,1192.831,2697.894z"/>
				
					<linearGradient id="SVGID_00000065775681146364186510000013015945470527342512_" gradientUnits="userSpaceOnUse" x1="-1276.2196" y1="4203.5308" x2="-888.8467" y2="4521.3481" gradientTransform="matrix(-0.6543 0.7562 0.7562 0.6543 -2851.8254 839.8935)">
					<stop  offset="0" style="stop-color:#FE7062"/>
					<stop  offset="1" style="stop-color:#FF928E"/>
				</linearGradient>
				<path style="fill:url(#SVGID_00000065775681146364186510000013015945470527342512_);" d="M1099.461,2871.601
					c-1.397-1.01-1.702-2.974-0.68-4.385c30.168-41.669,108.633-150.209,112.203-155.876c0.152-0.315,0.356-0.612,0.619-0.873
					c1.232-1.232,3.216-1.24,4.433-0.018c1.872,1.881,0.609,3.71-0.853,5.828c-0.81,1.172-2.009,2.879-3.542,5.045
					c-3.05,4.308-7.431,10.439-12.699,17.784c-9.316,12.99-22.335,31.07-38.695,53.739c-28.177,39.042-56.406,78.031-56.406,78.031
					c-0.012,0.017-0.024,0.032-0.036,0.049C1102.774,2872.294,1100.842,2872.6,1099.461,2871.601z M1211.578,2714.912
					c-0.208-0.208-0.38-0.439-0.516-0.684C1211.196,2714.469,1211.366,2714.7,1211.578,2714.912z M1210.677,2712.547
					c0.017-0.333,0.087-0.663,0.209-0.979C1210.767,2711.864,1210.693,2712.197,1210.677,2712.547z"/>
				
					<linearGradient id="SVGID_00000169551061917911118780000015843163665482947473_" gradientUnits="userSpaceOnUse" x1="3600.4397" y1="365.1266" x2="3965.0972" y2="664.3071" gradientTransform="matrix(-0.6091 0.8093 0.801 0.6028 3077.5532 -501.5264)">
					<stop  offset="0" style="stop-color:#FE7062"/>
					<stop  offset="1" style="stop-color:#FF928E"/>
				</linearGradient>
				<path style="fill:url(#SVGID_00000169551061917911118780000015843163665482947473_);" d="M1140.128,2883.199
					c0.063-0.084,0.124-0.173,0.18-0.265l91.513-150.67c0.905-1.489,0.441-3.42-1.035-4.312c-1.476-0.891-3.406-0.406-4.31,1.081
					l-91.512,150.67c-0.905,1.489-0.441,3.42,1.035,4.312C1137.383,2884.851,1139.166,2884.478,1140.128,2883.199z"/>
				
					<linearGradient id="SVGID_00000061441733094297714230000009792947832555199935_" gradientUnits="userSpaceOnUse" x1="3582.3596" y1="387.1653" x2="3947.0205" y2="686.3486" gradientTransform="matrix(-0.6091 0.8093 0.801 0.6028 3077.5532 -501.5264)">
					<stop  offset="0" style="stop-color:#FE7062"/>
					<stop  offset="1" style="stop-color:#FF928E"/>
				</linearGradient>
				<path style="fill:url(#SVGID_00000061441733094297714230000009792947832555199935_);" d="M1187.482,2888.828
					c0.136-0.181,0.254-0.378,0.352-0.592l55.725-121.617c0.725-1.583,0.039-3.444-1.533-4.156
					c-1.571-0.712-3.435-0.003-4.159,1.578l-55.724,121.618c-0.725,1.583-0.039,3.444,1.533,4.156
					C1185.034,2890.43,1186.611,2889.985,1187.482,2888.828z"/>
				
					<linearGradient id="SVGID_00000063591143794866345650000012592169516074866825_" gradientUnits="userSpaceOnUse" x1="1049.9071" y1="2658.5386" x2="1099.6989" y2="2357.5232">
					<stop  offset="0" style="stop-color:#FE7062"/>
					<stop  offset="1" style="stop-color:#FF928E"/>
				</linearGradient>
				<path style="fill:url(#SVGID_00000063591143794866345650000012592169516074866825_);" d="M860.345,2534.032
					c12.442-2.94,25.009-4.777,37.452-5.527c12.436-0.74,24.799-0.342,36.664,1.75c5.926,1.043,11.734,2.469,17.313,4.389
					c5.569,1.949,10.954,4.274,16.021,7.125c5.055,2.865,9.845,6.149,14.235,9.927c4.417,3.742,8.499,7.899,12.168,12.447
					c7.405,9.042,13.297,19.502,17.764,30.694c1.175,2.77,2.138,5.649,3.172,8.492c0.909,2.901,1.887,5.773,2.677,8.727
					c1.719,5.852,3.047,11.858,4.255,17.896c0.53,3.042,1.151,6.06,1.568,9.132l0.692,4.592l0.639,4.727l2.522,18.955l4.998,38.01
					c3.5,25.36,7.05,50.857,12.982,76.159c2.965,12.639,6.561,25.24,11.442,37.497c4.857,12.242,11.299,24.102,19.813,34.501
					c8.534,10.368,19.313,18.948,31.265,24.804c11.971,5.874,24.839,9.208,37.692,11.046c12.877,1.9,25.838,2.115,38.681,1.701
					c6.425-0.247,12.834-0.657,19.215-1.317c6.385-0.594,12.742-1.408,19.079-2.31c0.344-0.049,0.585-0.368,0.54-0.712
					c-0.043-0.324-0.332-0.555-0.652-0.54c-12.743,0.663-25.48,0.931-38.144,0.519c-6.331-0.21-12.638-0.657-18.901-1.303
					c-6.258-0.686-12.464-1.626-18.581-2.849c-12.214-2.471-24.089-6.347-34.657-12.327c-10.602-5.898-19.792-13.901-27.001-23.521
					c-7.23-9.63-12.485-20.721-16.697-32.266c-4.179-11.581-7.231-23.694-9.693-35.991c-2.476-12.3-4.336-24.798-6.071-37.352
					c-1.727-12.558-3.217-25.195-4.659-37.864l-4.369-38.078c-0.732-6.358-1.489-12.714-2.286-19.071l-0.598-4.776l-0.685-4.889
					c-0.414-3.263-1.04-6.509-1.578-9.763c-1.229-6.491-2.599-12.975-4.407-19.386c-0.822-3.221-1.901-6.388-2.888-9.574
					c-1.127-3.153-2.186-6.325-3.484-9.43c-4.942-12.475-11.586-24.521-20.283-35.184c-4.379-5.294-9.253-10.237-14.624-14.602
					c-5.397-4.325-11.201-8.18-17.383-11.262c-12.357-6.199-25.857-9.669-39.276-10.687c-13.441-1.046-26.808,0.151-39.655,2.958
					c-6.427,1.412-12.739,3.213-18.883,5.438c-6.143,2.226-12.154,4.735-17.867,7.928c-0.306,0.171-0.418,0.556-0.25,0.862
					c0.138,0.252,0.424,0.369,0.692,0.307L860.345,2534.032z"/>
			</g>
		</g>
		<g>
			<g>
				
					<ellipse transform="matrix(0.7071 -0.7071 0.7071 0.7071 -1072.1639 1059.6912)" style="fill:#FFFFFF;" cx="743.078" cy="1824.062" rx="292.329" ry="292.329"/>
				
					<ellipse transform="matrix(0.7071 -0.7071 0.7071 0.7071 -1072.1639 1059.6913)" style="fill:#7D97F4;" cx="743.078" cy="1824.062" rx="282.608" ry="282.608"/>
				<path style="fill:#BDD0FB;" d="M482.563,1813.203c-0.053,0-0.107,0-0.159-0.003c-1.648-0.087-2.911-1.493-2.825-3.137
					c0.58-11.103,1.87-22.252,3.836-33.143c0.291-1.621,1.834-2.7,3.468-2.409c1.623,0.295,2.7,1.846,2.407,3.47
					c-1.919,10.642-3.179,21.542-3.748,32.391C485.458,1811.967,484.14,1813.203,482.563,1813.203z"/>
				<path style="fill:#BDD0FB;" d="M510.04,1709.651c-0.452,0-0.911-0.102-1.343-0.321c-1.473-0.744-2.063-2.54-1.319-4.01
					c45.184-89.516,135.498-145.125,235.7-145.125c15.98,0,31.995,1.44,47.598,4.286c1.623,0.294,2.698,1.849,2.403,3.472
					c-0.295,1.624-1.844,2.709-3.473,2.4c-15.252-2.779-30.905-4.186-46.528-4.186c-97.935,0-186.207,54.352-230.371,141.841
					C512.183,1709.05,511.132,1709.651,510.04,1709.651z"/>
				
					<ellipse transform="matrix(0.7071 -0.7071 0.7071 0.7071 -1074.7145 1065.8485)" style="opacity:0.78;fill:#FFFFFF;" cx="749.236" cy="1830.219" rx="239.193" ry="239.193"/>
			</g>
			<g>
				<g>
					
						<linearGradient id="SVGID_00000083053620913794193780000014779414169844353158_" gradientUnits="userSpaceOnUse" x1="813.1329" y1="1851.5524" x2="917.2861" y2="1851.5524">
						<stop  offset="0" style="stop-color:#E1473D"/>
						<stop  offset="1" style="stop-color:#E9605A"/>
					</linearGradient>
					<path style="fill:url(#SVGID_00000083053620913794193780000014779414169844353158_);" d="M914.003,1843.922
						c4.355-10.056,4.231-20.942,0.492-30.398c-3.741-9.456-11.097-17.481-21.153-21.837c-20.13-8.719-43.515,0.53-52.235,20.66
						l-27.975,64.583c21.331,15.699,45.638,26.936,70.212,37.77L914.003,1843.922z"/>
					
						<linearGradient id="SVGID_00000119824282178031905610000004168405635869071013_" gradientUnits="userSpaceOnUse" x1="815.7382" y1="1997.8475" x2="887.2421" y2="1766.6514">
						<stop  offset="0" style="stop-color:#FE7062"/>
						<stop  offset="1" style="stop-color:#FF928E"/>
					</linearGradient>
					<path style="fill:url(#SVGID_00000119824282178031905610000004168405635869071013_);" d="M892.548,1893.453l-21.454,49.531
						c-8.72,20.13-32.105,29.379-52.235,20.66c-10.056-4.356-17.412-12.381-21.152-21.837c-3.74-9.456-3.864-20.342,0.492-30.398
						l21.454-49.531L892.548,1893.453z"/>
				</g>
				<g>
					
						<linearGradient id="SVGID_00000090293792606378277680000010227861136418075561_" gradientUnits="userSpaceOnUse" x1="727.2986" y1="1711.6306" x2="838.0032" y2="1711.6306">
						<stop  offset="0" style="stop-color:#E1473D"/>
						<stop  offset="1" style="stop-color:#E9605A"/>
					</linearGradient>
					<path style="fill:url(#SVGID_00000090293792606378277680000010227861136418075561_);" d="M797.198,1670.949l-69.9,1.909
						c0,26.692,0,53.051,0,79.469l72.07-1.969c10.954-0.299,20.768-5.01,27.76-12.394c6.992-7.384,11.159-17.442,10.86-28.396
						C837.389,1687.639,819.128,1670.35,797.198,1670.949z"/>
					
						<linearGradient id="SVGID_00000065791271876626765120000005701799836898009773_" gradientUnits="userSpaceOnUse" x1="634.295" y1="1785.9989" x2="858.34" y2="1569.104">
						<stop  offset="0" style="stop-color:#FE7062"/>
						<stop  offset="1" style="stop-color:#FF928E"/>
					</linearGradient>
					<path style="fill:url(#SVGID_00000065791271876626765120000005701799836898009773_);" d="M745.41,1751.832l-53.958,1.474
						c-21.929,0.599-40.19-16.691-40.789-38.62c-0.299-10.954,3.868-21.012,10.859-28.396c6.991-7.384,16.806-12.094,27.761-12.394
						l53.958-1.474L745.41,1751.832z"/>
				</g>
				<g>
					
						<linearGradient id="SVGID_00000019637009279466770350000011670774245320337322_" gradientUnits="userSpaceOnUse" x1="623.3999" y1="1924.4193" x2="746.6991" y2="1924.4193">
						<stop  offset="0" style="stop-color:#E1473D"/>
						<stop  offset="1" style="stop-color:#E9605A"/>
					</linearGradient>
					<path style="fill:url(#SVGID_00000019637009279466770350000011670774245320337322_);" d="M723.332,1901.267l-65.509-29.618
						c-12.098,23.533-24.544,47.212-34.423,71.618l67.206,30.385c9.985,4.515,20.873,4.564,30.387,0.974
						c9.514-3.589,17.654-10.818,22.169-20.803C752.199,1933.833,743.322,1910.305,723.332,1901.267z"/>
					
						<linearGradient id="SVGID_00000008122352591629476500000000363290528265418169_" gradientUnits="userSpaceOnUse" x1="544.1817" y1="1950.1553" x2="787.2949" y2="1795.2303">
						<stop  offset="0" style="stop-color:#FE7062"/>
						<stop  offset="1" style="stop-color:#FF928E"/>
					</linearGradient>
					<path style="fill:url(#SVGID_00000008122352591629476500000000363290528265418169_);" d="M641.422,1951.415l-49.185-22.237
						c-19.989-9.037-28.867-32.566-19.829-52.555c4.515-9.986,12.655-17.214,22.169-20.803c9.514-3.59,20.401-3.541,30.386,0.974
						l49.184,22.237L641.422,1951.415z"/>
				</g>
			</g>
		</g>
	</g>
</g>
</svg>
